<?xml version="1.0" encoding="UTF-8" standalone="no"?>
<svg
   xmlns:dc="http://purl.org/dc/elements/1.1/"
   xmlns:cc="http://creativecommons.org/ns#"
   xmlns:rdf="http://www.w3.org/1999/02/22-rdf-syntax-ns#"
   xmlns:svg="http://www.w3.org/2000/svg"
   xmlns="http://www.w3.org/2000/svg"
   xmlns:xlink="http://www.w3.org/1999/xlink"
   xmlns:sodipodi="http://sodipodi.sourceforge.net/DTD/sodipodi-0.dtd"
   xmlns:inkscape="http://www.inkscape.org/namespaces/inkscape"
   inkscape:version="1.0 (4035a4fb49, 2020-05-01)"
   sodipodi:docname="mf-avatar.svg"
   id="svg93"
   version="1.1"
   viewBox="0 0 217 237"
   height="237px"
   width="217px">
  <metadata
     id="metadata97">
    <rdf:RDF>
      <cc:Work
         rdf:about="">
        <dc:format>image/svg+xml</dc:format>
        <dc:type
           rdf:resource="http://purl.org/dc/dcmitype/StillImage" />
      </cc:Work>
    </rdf:RDF>
  </metadata>
  <sodipodi:namedview
     inkscape:current-layer="svg93"
     inkscape:window-maximized="1"
     inkscape:window-y="-8"
     inkscape:window-x="-8"
     inkscape:cy="118.5"
     inkscape:cx="55.450581"
     inkscape:zoom="3.628692"
     showgrid="false"
     id="namedview95"
     inkscape:window-height="1027"
     inkscape:window-width="1920"
     inkscape:pageshadow="2"
     inkscape:pageopacity="0"
     guidetolerance="10"
     gridtolerance="10"
     objecttolerance="10"
     borderopacity="1"
     bordercolor="#666666"
     pagecolor="#ffffff" />
  <!-- Generator: Sketch 59 (86127) - https://sketch.com -->
  <title
     id="title2">mf-avatar</title>
  <desc
     id="desc4">Created with Sketch.</desc>
  <defs
     id="defs13">
    <circle
       r="108"
       cy="108"
       cx="108"
       id="path-1" />
    <path
       id="path-3"
       d="M-3.19744231e-14,144 L-3.19744231e-14,-1.42108547e-14 L237.6,-1.42108547e-14 L237.6,144 L226.8,144 C226.8,203.646753 178.446753,252 118.8,252 C59.153247,252 10.8,203.646753 10.8,144 L10.8,144 L-3.19744231e-14,144 Z" />
    <path
       id="path-5"
       d="M90,0 C117.835151,-5.11323436e-15 140.4,22.5648486 140.4,50.4 L140.400938,55.9494825 C145.50836,56.8068094 149.4,61.2489341 149.4,66.6 L149.4,79.2 C149.4,84.6471857 145.367296,89.1524828 140.124546,89.8932318 C138.264968,107.718065 127.114,122.779595 111.600867,130.149444 L111.6,146.7 L115.2,146.7 C150.988052,146.7 180,175.711948 180,211.5 L180,219.6 L0,219.6 L0,211.5 C-4.38277231e-15,175.711948 29.0119482,146.7 64.8,146.7 L68.4,146.7 L68.4001308,130.149918 C52.8864784,122.78024 41.7350715,107.718447 39.8746409,89.8932685 C34.6327044,89.1524828 30.6,84.6471857 30.6,79.2 L30.6,66.6 C30.6,61.2485843 34.4921486,56.8062286 39.6000641,55.9493144 L39.6,50.4 C39.6,22.5648486 62.1648486,5.11323436e-15 90,0 Z" />
    <path
       id="path-7"
       d="M140.401336,11.7639465 C156.691257,13.5869406 169.2,18.5974066 169.2,31.5692308 L169.194195,31.1796307 C192.467264,41.0099495 208.8,64.0473854 208.8,90.8995362 L208.8,99 L28.8,99 L28.8,90.8995362 C28.8,64.0473854 45.1327357,41.0099495 68.4058046,31.1796307 C68.6525649,18.4964574 81.0734584,13.568361 97.199665,11.7638345 L97.2,28.8 C97.2,40.7293506 106.870649,50.4 118.8,50.4 C130.729351,50.4 140.4,40.7293506 140.4,28.8 L140.4,28.8 Z" />
    <path
       id="path-9"
       d="M31.6060596,13.6152695 C32.5581409,22.1578223 39.8033886,28.8 48.6,28.8 C57.4237849,28.8 64.6866067,22.1167224 65.6025833,13.5360492 C65.6763017,12.8454714 64.9050687,11.7 63.9384903,11.7 C50.5338783,11.7 40.2641292,11.7 33.3781419,11.7 C32.4059551,11.7 31.5108052,12.7605992 31.6060596,13.6152695 Z" />
    <rect
       height="252"
       width="237.6"
       y="0"
       x="0"
       id="path-11" />
    <path
       id="path-13"
       d="M118.134982,20.9283675 C115.651186,18.3903589 112.767321,16.2361467 109.962327,14.0758953 C109.34341,13.5996978 108.714559,13.134975 108.109489,12.6406597 C107.971919,12.528329 106.562799,11.5191649 106.394222,11.147749 C105.988434,10.2542371 106.223538,10.9499625 106.27953,9.8837271 C106.350272,8.53545721 109.099576,4.72738744 107.048059,3.85410714 C106.145572,3.47000876 104.535665,4.49215737 103.669903,4.82975328 C101.976612,5.49045082 100.262549,6.05391591 98.5120609,6.53977621 C99.3507296,4.86870665 100.949799,1.52354791 97.944319,2.41887158 C95.6029101,3.11640875 93.421047,4.90977378 91.068199,5.75346159 C91.8466618,4.47736113 94.9599107,0.523140708 92.1467884,0.302102957 C91.2713941,0.233255133 88.7240809,1.87533613 87.781557,2.22561453 C84.9585007,3.27493992 82.0749374,3.95315138 79.1109992,4.48732594 C69.0328266,6.30364025 57.2475146,5.78577175 47.9231203,10.3741169 C40.7345316,13.9113248 33.6362518,19.399825 29.4835474,26.3887851 C25.4810568,33.1253031 23.9840362,40.4977576 23.1462706,48.2171688 C22.531568,53.8823181 22.4815971,59.7383087 22.7690804,65.4239915 C22.8630017,67.2868082 23.0725183,75.8737625 25.7787751,73.2732473 C27.1270871,71.9775192 27.1171531,66.7453865 27.4567146,64.9743669 C28.1325262,61.4507473 28.7830513,57.9114256 29.9098054,54.5004387 C31.8953972,48.4895405 34.2377091,45.6866929 39.1842288,41.5467645 C42.3585867,38.890386 44.5877115,35.3000323 47.625402,32.6201006 C48.9899695,31.4164715 47.9487079,31.5417866 50.1426122,31.6997139 C51.6164535,31.8057033 53.0969174,31.8461665 54.573769,31.8848179 C57.9901549,31.9735954 61.4119592,31.950948 64.8292481,31.9630266 C71.7113886,31.9877877 78.561319,32.0850201 85.4368368,31.7247769 C88.4922881,31.5647359 91.5561682,31.4780722 94.6034916,31.1954338 C96.3058144,31.0375065 99.3263462,29.9465101 100.727639,30.7802331 C102.010026,31.5429945 103.341781,34.0335947 104.262631,35.0536296 C106.438172,37.4642093 109.032145,39.3052847 111.576147,41.2819419 C116.880892,45.4034505 119.559153,46.9800218 121.170264,53.4209169 C122.775354,59.8379568 122.325315,65.791335 124.312111,72.106311 C124.661606,73.2166332 125.586068,75.1304819 126.725767,73.4150236 C126.93739,73.0964515 126.882603,71.3451249 126.882603,70.3374051 C126.882603,66.269634 127.912727,63.2175395 127.899903,59.1232077 C127.849209,46.6744341 127.446733,30.4417478 118.134982,20.9283675 Z" />
  </defs>
  <g
     fill-rule="evenodd"
     fill="none"
     stroke-width="1"
     stroke="none"
     id="Website">
    <g
       transform="translate(-10.000000, -15.000000)"
       id="mf-avatar">
      <g
         transform="translate(10.800000, 36.000000)"
         id="Circle">
        <mask
           fill="white"
           id="mask-2">
          <use
             id="use15"
             xlink:href="#path-1" />
        </mask>
        <use
           xlink:href="#path-1"
           fill="#7510F7"
           id="Circle-Background" />
        <g
           fill="#7510F7"
           mask="url(#mask-2)"
           id="ðŸ–-Circle-Color">
          <rect
             height="216"
             width="216.445361"
             y="0"
             x="0"
             id="ðŸ–Color" />
        </g>
      </g>
      <mask
         fill="white"
         id="mask-4">
        <use
           id="use22"
           xlink:href="#path-3" />
      </mask>
      <g
         id="Mask" />
      <g
         mask="url(#mask-4)"
         id="Avataaar">
        <g
           transform="translate(28.800000, 32.400000)"
           id="Body">
          <mask
             fill="white"
             id="mask-6">
            <use
               id="use26"
               xlink:href="#path-5" />
          </mask>
          <use
             id="use29"
             xlink:href="#path-5"
             fill="#D0C6AC" />
          <g
             fill="#FFDBB4"
             mask="url(#mask-6)"
             id="Skin/ðŸ‘¶ðŸ»-05-Pale">
            <g
               id="Color"
               transform="translate(-28.800000, 0.000000)">
              <rect
                 id="rect31"
                 height="220.354839"
                 width="238.383871"
                 y="0"
                 x="0" />
            </g>
          </g>
          <path
             mask="url(#mask-6)"
             fill="#000000"
             fill-opacity="0.100000001"
             id="Neck-Shadow"
             d="M39.6,84.6 C39.6,112.435151 62.1648486,135 90,135 C117.835151,135 140.4,112.435151 140.4,84.6 L140.4,84.6 L140.4,91.8 C140.4,119.635151 117.835151,142.2 90,142.2 C62.1648486,142.2 39.6,119.635151 39.6,91.8 Z" />
        </g>
        <g
           transform="translate(0.000000, 153.000000)"
           id="Clothing/Hoodie">
          <mask
             fill="white"
             id="mask-8">
            <use
               id="use37"
               xlink:href="#path-7" />
          </mask>
          <use
             xlink:href="#path-7"
             fill-rule="evenodd"
             fill="#B7C1DB"
             id="Hoodie" />
          <g
             fill-rule="evenodd"
             fill="#293347"
             mask="url(#mask-8)"
             id="Color/Palette/Slate">
            <rect
               height="99"
               width="238.490722"
               y="0"
               x="0"
               id="rect41" />
          </g>
          <path
             mask="url(#mask-8)"
             fill-rule="evenodd"
             fill="#F4F4F4"
             id="Straps"
             d="M91.7997922,55.5650565 L91.8,99 L85.5,99 L85.4989717,52.3346251 C87.4825877,53.5136414 89.5915786,54.5944735 91.7997922,55.5650565 Z M152.101479,52.334357 L152.1,88.65 C152.1,90.389697 150.689697,91.8 148.95,91.8 C147.210303,91.8 145.8,90.389697 145.8,88.65 L145.80121,55.5646162 C148.009227,54.594073 150.118032,53.5132992 152.101479,52.334357 Z" />
          <path
             mask="url(#mask-8)"
             fill-rule="evenodd"
             fill="#000000"
             fill-opacity="0.16"
             id="Shadow"
             d="M155.733313,11.4514328 C169.280438,14.0134155 178.65,19.1179672 178.65,29.0769231 C178.65,46.8180086 148.916087,61.2 118.8,61.2 C88.6839126,61.2 58.95,46.8180086 58.95,29.0769231 C58.95,19.1179672 68.3195623,14.0134155 81.8666868,11.4514328 C73.6891467,14.4655041 68.4,19.534193 68.4,27.9692308 C68.4,46.3220778 93.4390843,61.2 118.8,61.2 C144.160916,61.2 169.2,46.3220778 169.2,27.9692308 C169.2,19.7104496 164.129585,14.6788022 156.241116,11.6422715 Z" />
        </g>
        <g
           transform="translate(68.400000, 73.800000)"
           id="Face">
          <g
             transform="translate(1.800000, 46.800000)"
             id="Mouth/Smile">
            <mask
               fill="white"
               id="mask-10">
              <use
                 id="use47"
                 xlink:href="#path-9" />
            </mask>
            <use
               xlink:href="#path-9"
               fill-rule="evenodd"
               fill="#000000"
               fill-opacity="0.699999988"
               id="Mouth" />
            <path
               mask="url(#mask-10)"
               fill-rule="evenodd"
               fill="#FFFFFF"
               id="Teeth"
               d="M39.6,1.8 L58.5,1.8 C60.9852814,1.8 63,3.81471863 63,6.3 L63,11.7 C63,14.1852814 60.9852814,16.2 58.5,16.2 L39.6,16.2 C37.1147186,16.2 35.1,14.1852814 35.1,11.7 L35.1,6.3 C35.1,3.81471863 37.1147186,1.8 39.6,1.8 Z" />
            <g
               fill="#FF4F6D"
               mask="url(#mask-10)"
               fill-rule="evenodd"
               stroke-width="1"
               id="Tongue">
              <g
                 id="g56"
                 transform="translate(34.200000, 21.600000)">
                <circle
                   id="circle52"
                   r="9.9"
                   cy="9.9"
                   cx="9.9" />
                <circle
                   id="circle54"
                   r="9.9"
                   cy="9.9"
                   cx="18.9" />
              </g>
            </g>
          </g>
          <g
             fill-opacity="0.16"
             fill="#000000"
             transform="translate(25.200000, 36.000000)"
             id="Nose/Default">
            <path
               id="Nose"
               d="M14.4,7.2 C14.4,11.1764502 19.2353247,14.4 25.2,14.4 L25.2,14.4 C31.1646753,14.4 36,11.1764502 36,7.2" />
          </g>
          <g
             fill-opacity="0.599999964"
             fill="#000000"
             transform="translate(0.000000, 7.200000)"
             id="Eyes/Happy-ðŸ˜">
            <path
               id="Squint"
               d="M14.5441507,20.2025804 C16.2060084,16.7836572 19.9479802,14.4 24.2978223,14.4 C28.6323089,14.4 32.3632095,16.7668578 34.0338166,20.1664118 C34.5300845,21.1762779 33.8238934,22.0027335 33.1115463,21.3903205 C30.9055557,19.493805 27.7728447,18.3094095 24.2978223,18.3094095 C20.9314855,18.3094095 17.8863826,19.4208767 15.6937852,21.2144771 C14.8921136,21.8702649 14.0580911,21.202546 14.5441507,20.2025804 Z" />
            <path
               id="path63"
               d="M66.7441507,20.2025804 C68.4060084,16.7836572 72.1479802,14.4 76.4978223,14.4 C80.8323089,14.4 84.5632095,16.7668578 86.2338166,20.1664118 C86.7300845,21.1762779 86.0238934,22.0027335 85.3115463,21.3903205 C83.1055557,19.493805 79.9728447,18.3094095 76.4978223,18.3094095 C73.1314855,18.3094095 70.0863826,19.4208767 67.8937852,21.2144771 C67.0921136,21.8702649 66.2580911,21.202546 66.7441507,20.2025804 Z" />
          </g>
          <g
             fill-opacity="0.599999964"
             fill="#000000"
             id="Eyebrow/Natural/Default-Natural">
            <path
               transform="translate(24.300000, 10.800000) rotate(5.000000) translate(-24.300000, -10.800000) "
               id="Eyebrow"
               d="M23.4351841,5.58911128 C18.2497998,6.28511594 10.1636382,10.8047231 10.839834,16.03603 C10.8620533,16.2072489 11.1210572,16.2606121 11.2328169,16.1176444 C13.4706637,13.2483016 30.7735176,9.03289328 37.0748406,9.91324359 C37.6515471,9.99400182 38.0322596,9.39873091 37.6389451,9.02718599 C34.2689096,5.84536884 28.0803412,4.96102342 23.4351841,5.58911128" />
            <path
               transform="translate(77.400000, 10.800000) scale(-1, 1) rotate(5.000000) translate(-77.400000, -10.800000) "
               id="path67"
               d="M76.5351841,5.58911128 C71.3497998,6.28511594 63.2636382,10.8047231 63.939834,16.03603 C63.9620533,16.2072489 64.2210572,16.2606121 64.3328169,16.1176444 C66.5706637,13.2483016 83.8735176,9.03289328 90.1748406,9.91324359 C90.7515471,9.99400182 91.1322596,9.39873091 90.7389451,9.02718599 C87.3689096,5.84536884 81.1803412,4.96102342 76.5351841,5.58911128" />
          </g>
        </g>
        <g
           id="Top">
          <mask
             fill="white"
             id="mask-12">
            <use
               id="use71"
               xlink:href="#path-11" />
          </mask>
          <g
             id="g74" />
          <g
             id="g87"
             mask="url(#mask-12)">
            <g
               id="g85"
               transform="translate(43.000000, 15.000000)">
              <mask
                 fill="white"
                 id="mask-14">
                <use
                   id="use76"
                   xlink:href="#path-13" />
              </mask>
              <use
                 xlink:href="#path-13"
                 fill-rule="evenodd"
                 fill="#1F3140"
                 stroke="none"
                 id="Short-Hair" />
              <g
                 fill-rule="evenodd"
                 mask="url(#mask-14)"
                 fill="none"
                 stroke="none"
                 id="Color/Hair/Brown-Dark">
                <g
                   id="g82"
                   fill="#4A312C"
                   transform="translate(-43.100000, -15.000000)">
                  <rect
                     id="rect80"
                     height="252.406452"
                     width="239.106977"
                     y="0"
                     x="0" />
                </g>
              </g>
            </g>
          </g>
        </g>
      </g>
    </g>
  </g>
  <path
     id="path99"
     d="M 24.370369,196.15749 C 19.533892,189.94663 16.247127,184.81915 12.83598,178.16337 6.9420922,166.66332 3.4879583,155.46031 1.6627157,141.92442 0.94197024,136.57941 0.9414737,121.37121 1.6618699,116.01977 4.4620057,95.219057 12.114805,77.156855 24.897401,61.17907 28.710152,56.413267 36.216755,48.906665 40.982558,45.093913 45.100439,41.799514 51.755605,37.287259 56.019293,34.89889 c 1.525349,-0.854448 2.862836,-1.553541 2.972195,-1.553541 0.109359,0 0.08329,0.21702 -0.05793,0.482267 -0.512177,0.96197 -1.985261,7.461751 -2.54511,11.229942 -1.107785,7.456197 -1.024502,24.050463 0.137234,27.343167 l 0.371616,1.053277 -1.622891,0.788337 c -2.10214,1.021139 -4.3817,3.457921 -5.236666,5.597841 -0.605293,1.515006 -0.64157,1.993663 -0.730911,9.644502 -0.07836,6.710529 -0.02042,8.337641 0.348161,9.776347 1.005395,3.924431 3.892615,6.871171 7.75014,7.909891 l 1.118571,0.3012 0.339166,2.27586 c 1.510013,10.13245 6.365363,19.89846 13.6446,27.44463 3.469826,3.59706 9.088239,7.78703 12.78739,9.53626 1.645695,0.7782 1.709798,0.84704 1.709798,1.83595 0,0.99688 -0.03483,1.03277 -1.171221,1.20685 -10.912304,1.67168 -16.102185,3.33115 -20.770073,6.64127 -4.000202,2.83664 -6.655418,7.45121 -6.727397,11.69171 -0.01607,0.94625 -0.06682,0.98805 -2.676521,2.20465 -11.331659,5.28263 -21.434263,14.48876 -27.911608,25.43481 l -1.597342,2.69935 z"
     style="fill:#c8ab37;stroke-width:0.275581" />
  <path
     id="path101"
     d="m 190.88262,197.55272 c -0.19929,-0.48115 -1.44034,-2.49835 -2.75788,-4.48266 -6.44128,-9.70108 -14.8499,-17.13293 -25.29925,-22.36041 l -3.61851,-1.81022 v -1.02845 c 0,-3.15886 -1.77973,-6.86386 -4.65335,-9.68726 -3.27488,-3.21765 -7.96591,-5.4257 -14.91293,-7.01946 -2.31706,-0.53157 -8.12673,-1.52356 -8.92287,-1.52356 -0.0942,0 -0.17132,-0.42096 -0.17132,-0.93546 0,-0.89566 0.11448,-1.00028 2.6904,-2.45878 11.1072,-6.28896 19.24573,-15.96044 23.33502,-27.73038 0.97005,-2.79202 2.35947,-8.8606 2.35947,-10.30549 0,-0.60472 0.17661,-0.76016 1.1666,-1.02674 3.21585,-0.86593 5.77168,-2.9951 7.19057,-5.99017 l 0.8748,-1.846587 v -9.100232 -9.100233 l -0.90052,-1.828962 c -1.13326,-2.301661 -3.56756,-4.637437 -5.636,-5.407885 l -1.45534,-0.54208 -0.0843,-2.305073 c -0.0464,-1.267787 0.10371,-3.793209 0.33353,-5.612047 0.72446,-5.73327 0.74911,-6.462783 0.45127,-13.353966 -0.30247,-6.998353 -0.97698,-12.663512 -1.9501,-16.378764 -0.3117,-1.190036 -0.50519,-2.225243 -0.42997,-2.30046 0.30856,-0.308558 8.04783,4.295087 12.56507,7.47423 6.89313,4.851253 15.91571,13.217679 20.98696,19.460705 13.76161,16.94141 21.71299,36.036483 24.0985,57.872094 0.59989,5.49107 0.59301,15.90159 -0.0143,21.63314 -2.14713,20.26371 -9.38793,38.53394 -21.69362,54.7381 -3.08323,4.06001 -3.09202,4.06732 -3.5519,2.95706 z"
     style="fill:#fff6d5;stroke-width:0.275581" />
  <path
     id="path1078"
     d="M 23.432865,194.62936 C 10.156005,177.03566 2.4484425,156.51873 1.4074572,135.99942 1.0843165,129.62985 1.303594,120.31612 1.8840293,115.75719 3.5464708,102.69984 8.0355793,88.744581 14.142524,77.649313 19.796176,67.377601 25.862049,59.498819 34.620481,51.051108 39.1987,46.63531 42.777693,43.73567 48.196094,40.052372 c 3.60684,-2.451839 10.301817,-6.52819 10.440302,-6.356754 0.02804,0.03471 -0.302872,1.489237 -0.73535,3.232289 -1.909416,7.695683 -2.632445,15.62356 -2.349957,25.76686 0.151782,5.450003 0.304815,7.207396 0.863903,9.920931 0.160631,0.779617 0.08266,0.872055 -1.367752,1.621614 -1.691458,0.874128 -3.98947,3.201672 -4.875208,4.937859 -0.804428,1.576814 -1.127431,5.936115 -0.994367,13.420178 0.097,5.455409 0.180266,6.391835 0.692892,7.792001 1.192228,3.25643 4.14074,6.04779 7.222586,6.83764 1.067024,0.27347 1.388834,0.47953 1.388834,0.88929 0,0.29333 0.305735,2.04331 0.679413,3.88883 2.723292,13.44989 10.446927,24.82255 22.056052,32.47642 1.364128,0.89936 3.200743,2.00005 4.081366,2.44597 1.491267,0.75513 1.595274,0.87039 1.515698,1.67967 l -0.08544,0.86891 -3.720349,0.63982 c -10.741909,1.84736 -16.172762,4.04406 -20.288413,8.20637 -2.380499,2.40748 -3.8529,5.16087 -4.28278,8.00878 -0.15885,1.05237 -0.378593,2.09941 -0.488316,2.32676 -0.109726,0.22736 -1.59875,1.12225 -3.308947,1.98865 -11.371368,5.76083 -20.344543,14.03021 -26.773832,24.67385 -0.938446,1.55359 -1.723311,2.82471 -1.744146,2.82471 -0.02083,0 -1.231074,-1.58115 -2.689422,-3.51366 z"
     style="fill:#fff6d5;stroke-width:0.275581" />
</svg>
