<?xml version="1.0" encoding="UTF-8" standalone="no"?>
<svg
   xmlns:dc="http://purl.org/dc/elements/1.1/"
   xmlns:cc="http://creativecommons.org/ns#"
   xmlns:rdf="http://www.w3.org/1999/02/22-rdf-syntax-ns#"
   xmlns:svg="http://www.w3.org/2000/svg"
   xmlns="http://www.w3.org/2000/svg"
   xmlns:sodipodi="http://sodipodi.sourceforge.net/DTD/sodipodi-0.dtd"
   xmlns:inkscape="http://www.inkscape.org/namespaces/inkscape"
   inkscape:version="1.0 (4035a4fb49, 2020-05-01)"
   sodipodi:docname="frontend.svg"
   id="svg1326"
   version="1.1"
   viewBox="0 0 50 48"
   height="48px"
   width="50px">
  <metadata
     id="metadata1332">
    <rdf:RDF>
      <cc:Work
         rdf:about="">
        <dc:format>image/svg+xml</dc:format>
        <dc:type
           rdf:resource="http://purl.org/dc/dcmitype/StillImage" />
      </cc:Work>
    </rdf:RDF>
  </metadata>
  <defs
     id="defs1330" />
  <sodipodi:namedview
     inkscape:current-layer="svg1326"
     inkscape:window-maximized="1"
     inkscape:window-y="-8"
     inkscape:window-x="-8"
     inkscape:cy="24"
     inkscape:cx="25"
     inkscape:zoom="17.916667"
     showgrid="false"
     id="namedview1328"
     inkscape:window-height="1027"
     inkscape:window-width="1920"
     inkscape:pageshadow="2"
     inkscape:pageopacity="0"
     guidetolerance="10"
     gridtolerance="10"
     objecttolerance="10"
     borderopacity="1"
     bordercolor="#666666"
     pagecolor="#ffffff" />
  <!-- Generator: Sketch 59 (86127) - https://sketch.com -->
  <title
     id="title1320">frontend</title>
  <desc
     id="desc1322">Created with Sketch.</desc>
  <g
     fill-rule="evenodd"
     fill="none"
     stroke-width="1"
     stroke="none"
     id="Website">
    <path
       fill="#7510F7"
       id="frontend"
       d="M47.6190476,44.3916 C47.6190476,45.0576 47.0797619,45.6 46.4238095,45.6 L3.57619048,45.6 C2.91428571,45.6 2.38095238,45.0624 2.38095238,44.3916 L2.38095238,18 L2.38095238,13.2 L2.38095238,12 L5.95238095,12 L13.0952381,12 L16.6666667,12 L20.2380952,12 L35.1904762,12 L47.6190476,12 L47.6190476,18 L47.6190476,44.3916 Z M3.57619048,2.4 L5.95238095,2.4 L13.0952381,2.4 L16.6666667,2.4 L20.2380952,2.4 L46.4238095,2.4 C47.0821429,2.4 47.6130952,2.934 47.6178571,3.6 C47.6178571,3.6024 47.6190476,3.6048 47.6190476,3.6084 L47.6190476,9.6 L20.2380952,9.6 L16.6666667,9.6 L13.0952381,9.6 L5.95238095,9.6 L2.38095238,9.6 L2.38095238,3.6084 C2.38095238,3.6048 2.38214286,3.6024 2.38214286,3.6 C2.38690476,2.9388 2.92261905,2.4 3.57619048,2.4 L3.57619048,2.4 Z M46.4238095,0 C48.3964286,0 49.9940476,1.6068 49.9988095,3.6 C49.9988095,3.6024 50,3.606 50,3.6084 L50,3.6084 L50,44.3916 C50,46.3848 48.3928571,48 46.4238095,48 L46.4238095,48 L3.57619048,48 C1.60119048,48 0,46.3884 0,44.3916 L0,44.3916 L0.000595238095,3.6042 L0.000595238095,3.6042 C0.00476190476,2.0364 1.00238095,0.7188 2.38095238,0.222 C2.75595238,0.0864 3.1547619,0 3.57619048,0 L3.57619048,0 Z M27.3807143,17.03184 C27.192619,17.16264 27.0271429,17.33184 26.9378571,17.56224 L26.7688095,18.00024 L22.7509524,28.34664 L19.1295238,37.67784 C18.8890476,38.29464 19.1914286,38.99064 19.8045238,39.23184 C20.417619,39.47304 21.1080952,39.16824 21.347381,38.55264 L22.7509524,34.93344 L27.3807143,23.00664 L29.1545238,18.43704 C29.2104762,18.29304 29.2307143,18.14544 29.2307143,18.00024 C29.2307143,17.52024 28.9509524,17.06664 28.4807143,16.88184 C28.097381,16.73064 27.6961905,16.81224 27.3807143,17.03184 Z M14.7671429,20.75136 L13.0957143,22.43616 L8.8802381,26.68416 C8.4147619,27.15336 8.4147619,27.91296 8.8802381,28.38096 L13.0957143,32.63016 L14.7671429,34.31616 C15.232619,34.78416 15.985,34.78416 16.4504762,34.31616 C16.9159524,33.84696 16.9159524,33.08616 16.4504762,32.61936 L13.0957143,29.23656 L11.4052381,27.53256 L13.0957143,25.82976 L16.4504762,22.44816 C16.9159524,21.97896 16.9159524,21.22056 16.4504762,20.75136 C15.985,20.28216 15.232619,20.28216 14.7671429,20.75136 Z M33.6821429,20.75136 C33.2166667,21.22056 33.2166667,21.97896 33.6821429,22.44816 L35.1904762,23.96856 L38.7261905,27.53256 L35.1904762,31.09896 L33.6821429,32.61936 C33.2166667,33.08616 33.2166667,33.84696 33.6821429,34.31616 C34.0952381,34.73136 34.7261905,34.75776 35.1904762,34.43256 C35.247619,34.39296 35.3130952,34.36896 35.3654762,34.31616 L41.252381,28.38096 C41.7178571,27.91296 41.7178571,27.15336 41.252381,26.68416 L35.3654762,20.75136 C35.3130952,20.69976 35.247619,20.67456 35.1904762,20.63376 C34.7261905,20.31096 34.0952381,20.33376 33.6821429,20.75136 Z M5.95238095,4.79976 C5.29404762,4.79976 4.76190476,5.33616 4.76190476,5.99976 C4.76190476,6.66336 5.29404762,7.19976 5.95238095,7.19976 C6.61071429,7.19976 7.14285714,6.66336 7.14285714,5.99976 C7.14285714,5.33616 6.61071429,4.79976 5.95238095,4.79976 Z M9.52380952,4.79976 C8.86547619,4.79976 8.33333333,5.33616 8.33333333,5.99976 C8.33333333,6.66336 8.86547619,7.19976 9.52380952,7.19976 C10.1821429,7.19976 10.7142857,6.66336 10.7142857,5.99976 C10.7142857,5.33616 10.1821429,4.79976 9.52380952,4.79976 Z M13.0952381,4.79976 C12.4369048,4.79976 11.9047619,5.33616 11.9047619,5.99976 C11.9047619,6.66336 12.4369048,7.19976 13.0952381,7.19976 C13.7535714,7.19976 14.2857143,6.66336 14.2857143,5.99976 C14.2857143,5.33616 13.7535714,4.79976 13.0952381,4.79976 Z" />
  </g>
  <path
     id="path1334"
     d="M 3.1420009,47.939494 C 2.3483942,47.846219 1.4881779,47.393686 0.94389475,46.783138 0.60334273,46.401124 0.19358824,45.588431 0.10816554,45.125581 0.06348262,44.883474 0.05089102,38.97674 0.06271492,23.804651 L 0.07906977,2.8186047 0.22545961,2.442332 C 0.75473139,1.0819202 1.857826,0.21918695 3.2757063,0.05672608 3.9474134,-0.0202382 46.110075,-0.02004574 46.781855,0.05692467 48.004229,0.19698018 49.025475,0.9045629 49.559422,1.9813953 49.987,2.8437081 49.951179,0.73147524 49.935248,24.142312 l -0.01432,21.039083 -0.14639,0.376273 c -0.451049,1.159353 -1.303928,1.955026 -2.476866,2.310733 -0.321147,0.09739 -1.225443,0.101891 -22.046511,0.109687 -11.941396,0.0045 -21.8905184,-0.0129 -22.1091621,-0.03859 z M 47.111472,45.402173 c 0.133109,-0.09346 0.304807,-0.281829 0.381551,-0.418605 L 47.632558,44.734884 47.646884,28.367442 47.66121,12 H 25 2.3387902 l 0.014326,16.367442 0.014326,16.367442 0.1201497,0.223256 c 0.1478971,0.274814 0.3229624,0.442349 0.5779232,0.553063 0.1733021,0.07525 2.6162272,0.08334 21.9994459,0.07277 l 21.804495,-0.01188 z M 47.648685,6.4325581 C 47.632797,3.3120076 47.630779,3.2618111 47.512409,3.0418605 47.373776,2.78426 47.204938,2.6182464 46.9512,2.4900385 46.786899,2.4070203 44.976838,2.400743 24.951356,2.4137423 L 3.1305437,2.427907 2.8885276,2.5978273 C 2.7554188,2.6912834 2.5837209,2.8796555 2.5069767,3.0164319 L 2.3674419,3.2651163 2.3517271,6.4325581 2.3360122,9.6 h 22.6643998 22.6644 z"
     style="fill:#aa8800;stroke-width:0.055814" />
  <path
     id="path1336"
     d="M 9.2452548,7.1168111 C 8.9164314,7.0333196 8.6328644,6.8155447 8.5066552,6.5495786 8.1219697,5.7389141 8.644437,4.8478405 9.5044431,4.8478405 c 0.6591619,0 1.1673179,0.5018875 1.1673179,1.152918 0,0.7551648 -0.6977782,1.301084 -1.4265062,1.1160526 z"
     style="fill:#aa8800;stroke-width:0.055814" />
  <path
     id="path1338"
     d="M 5.6731618,7.1168111 C 5.3443383,7.0333196 5.0607713,6.8155447 4.9345622,6.5495786 4.5498767,5.7389141 5.072344,4.8478405 5.9323501,4.8478405 c 0.6591618,0 1.1673177,0.5018875 1.1673177,1.152918 0,0.7551648 -0.6977781,1.301084 -1.426506,1.1160526 z"
     style="fill:#aa8800;stroke-width:0.055814" />
  <path
     id="path1340"
     d="M 12.817348,7.1168111 C 12.25742,6.9746398 11.967344,6.5824093 11.967588,5.9677967 c 1.21e-4,-0.3060599 0.02543,-0.405295 0.152238,-0.5969147 0.635499,-0.9603041 2.116054,-0.5196673 2.116054,0.6297714 0,0.7638866 -0.684555,1.3025219 -1.418532,1.1161577 z"
     style="fill:#aa8800;stroke-width:0.055814" />
  <path
     id="path1342"
     d="m 15.364178,34.608924 c -0.09645,-0.02394 -0.259702,-0.09633 -0.362791,-0.16088 -0.275435,-0.172463 -6.2098889,-6.203033 -6.3269709,-6.429444 -0.1292077,-0.24986 -0.1284245,-0.698216 0.0017,-0.972431 0.1470252,-0.309832 6.1779359,-6.378959 6.4727219,-6.513736 0.315456,-0.144229 0.622711,-0.13096 0.969533,0.04187 0.326046,0.162475 0.520076,0.410235 0.620026,0.791719 0.05123,0.195546 0.04595,0.299761 -0.02827,0.55814 -0.08929,0.310847 -0.147956,0.37452 -2.719669,2.951971 l -2.628408,2.634272 2.293481,2.33317 c 1.261415,1.283243 2.423087,2.458752 2.581493,2.61224 0.453653,0.439569 0.595161,0.79948 0.496046,1.261638 -0.127834,0.59607 -0.798718,1.032973 -1.368894,0.891472 z"
     style="fill:#aa8800;stroke-width:0.055814" />
  <path
     id="path1344"
     d="M 19.844173,39.214219 C 19.365348,39.036475 19.044648,38.525555 19.09725,38.024263 19.114963,37.85546 20.56813,34.043367 23.070971,27.6 c 3.275239,-8.431842 3.97599,-10.189797 4.12346,-10.344426 0.547871,-0.574465 1.353853,-0.532281 1.793945,0.09389 0.151517,0.215582 0.169569,0.284519 0.167951,0.641386 -0.0018,0.394848 -0.05123,0.526912 -3.956833,10.56952 -4.169204,10.72041 -4.02528,10.377954 -4.454916,10.600127 -0.235976,0.122029 -0.649864,0.146721 -0.900405,0.05372 z"
     style="fill:#aa8800;stroke-width:0.055814" />
  <path
     id="path1346"
     d="m 33.960461,34.477678 c -0.324154,-0.1836 -0.545449,-0.528334 -0.576053,-0.897374 -0.04867,-0.586872 -0.113843,-0.506672 2.729206,-3.358378 1.43914,-1.443522 2.616619,-2.644883 2.616619,-2.66969 0,-0.02481 -1.161628,-1.222757 -2.581396,-2.662111 -1.635976,-1.658545 -2.616632,-2.694276 -2.677606,-2.827984 -0.203191,-0.445573 -0.07446,-1.001806 0.309972,-1.339341 0.362738,-0.318488 0.807806,-0.360852 1.276893,-0.121541 0.123992,0.06326 1.458468,1.360557 3.211899,3.122424 3.281227,3.297014 3.340286,3.366761 3.288826,3.88399 -0.01569,0.157709 -0.06861,0.36425 -0.117596,0.45898 -0.150554,0.291139 -6.144618,6.291792 -6.416219,6.423271 -0.325488,0.157567 -0.77384,0.152409 -1.064545,-0.01225 z"
     style="fill:#aa8800;stroke-width:0.055814" />
</svg>
