<?xml version="1.0" encoding="UTF-8" standalone="no"?>
<svg
   xmlns:dc="http://purl.org/dc/elements/1.1/"
   xmlns:cc="http://creativecommons.org/ns#"
   xmlns:rdf="http://www.w3.org/1999/02/22-rdf-syntax-ns#"
   xmlns:svg="http://www.w3.org/2000/svg"
   xmlns="http://www.w3.org/2000/svg"
   xmlns:sodipodi="http://sodipodi.sourceforge.net/DTD/sodipodi-0.dtd"
   xmlns:inkscape="http://www.inkscape.org/namespaces/inkscape"
   inkscape:version="1.0 (4035a4fb49, 2020-05-01)"
   sodipodi:docname="mentor.svg"
   id="svg1292"
   version="1.1"
   viewBox="0 0 40 48"
   height="48px"
   width="40px">
  <metadata
     id="metadata1298">
    <rdf:RDF>
      <cc:Work
         rdf:about="">
        <dc:format>image/svg+xml</dc:format>
        <dc:type
           rdf:resource="http://purl.org/dc/dcmitype/StillImage" />
      </cc:Work>
    </rdf:RDF>
  </metadata>
  <defs
     id="defs1296" />
  <sodipodi:namedview
     inkscape:current-layer="svg1292"
     inkscape:window-maximized="1"
     inkscape:window-y="-8"
     inkscape:window-x="-8"
     inkscape:cy="24"
     inkscape:cx="20"
     inkscape:zoom="17.916667"
     showgrid="false"
     id="namedview1294"
     inkscape:window-height="1027"
     inkscape:window-width="1920"
     inkscape:pageshadow="2"
     inkscape:pageopacity="0"
     guidetolerance="10"
     gridtolerance="10"
     objecttolerance="10"
     borderopacity="1"
     bordercolor="#666666"
     pagecolor="#ffffff" />
  <!-- Generator: Sketch 59 (86127) - https://sketch.com -->
  <title
     id="title1286">mentor</title>
  <desc
     id="desc1288">Created with Sketch.</desc>
  <g
     fill-rule="evenodd"
     fill="none"
     stroke-width="1"
     stroke="none"
     id="Website">
    <path
       fill="#7510F7"
       id="mentor"
       d="M37.2,36 L4.7964,36 C3.9216,36 3.1092,36.2544 2.4,36.6684 L2.4,4.8 C2.4,3.4776 3.4776,2.4 4.7964,2.4 L37.2,2.4 L37.2,36 Z M37.2,40.8 L8.4,40.8 L8.4,43.2 L37.2,43.2 L37.2,45.6 L4.7964,45.6 C3.8952,45.6 3.1176,45.0912 2.7084,44.3532 C2.5188,44.0076 2.4,43.6152 2.4,43.188 L2.4,40.812 C2.4,39.4812 3.48,38.4 4.7964,38.4 L37.2,38.4 L37.2,40.8 Z M39.6,0 L39.6,48 L4.7964,48 C2.8812,48 1.242,46.872 0.474,45.2436 C0.1776,44.6208 0,43.9332 0,43.2 L0,43.2 L0,4.8 C0,2.1492 2.1576,0 4.7964,0 L4.7964,0 L39.6,0 Z M19.1652,9.942 L13.1652,13.542 C12.4428,13.9752 12,14.7576 12,15.6 L12,22.8 C12,23.6424 12.4428,24.4248 13.1652,24.858 L19.1652,28.458 C19.9248,28.914 20.8752,28.914 21.6348,28.458 L27.6348,24.858 C28.3572,24.4248 28.8,23.6424 28.8,22.8 L28.8,15.6 C28.8,14.7576 28.3572,13.9752 27.6348,13.542 L21.6348,9.942 C20.8752,9.486 19.9248,9.486 19.1652,9.942 Z M20.4,12 L26.4,15.6 L26.4,22.8 L20.4,26.4 L14.4,22.8 L14.4,15.6 L20.4,12 Z" />
  </g>
  <path
     id="path1300"
     d="M 4.3289277,47.940162 C 2.1709612,47.731607 0.35809283,45.959649 0.07211636,43.779414 0.03307128,43.48174 0.0196061,36.98814 0.03046507,23.693023 L 0.04651163,4.0465116 0.16951611,3.6267253 C 0.57046327,2.2583838 1.3999598,1.2151846 2.5776627,0.59816936 3.2108023,0.2664585 3.6887797,0.12575881 4.4171563,0.05668725 4.8056625,0.01984542 11.04785,7.7012093e-5 22.302326,4.6649302e-5 L 39.590698,0 v 24 24 l -17.4,-0.0076 C 12.620698,47.9882 4.5829012,47.96471 4.3289277,47.94017 Z M 37.246512,44.4 v -1.2 h -14.4 H 8.4465116 V 42 40.8 h 14.4000004 14.4 v -1.200368 -1.200368 l -16.562791,0.01432 -16.5627908,0.01432 -0.3233772,0.158699 c -0.410174,0.201295 -0.9219532,0.673017 -1.1150216,1.027747 -0.2691933,0.494597 -0.3180111,0.857222 -0.3189157,2.368946 -4.912e-4,0.820033 0.024823,1.498492 0.062473,1.674419 0.1803446,0.842683 0.7898947,1.552843 1.5713209,1.830675 0.2806899,0.0998 0.8727363,0.103595 16.7700314,0.107529 L 37.246512,45.6 Z M 2.789621,36.508325 c 0.4888478,-0.241601 1.0460299,-0.395905 1.638286,-0.453702 0.3115408,-0.0304 7.18882,-0.05234 16.674419,-0.05318 L 37.246512,36 V 19.199632 2.3992639 L 20.683721,2.4135854 4.1209302,2.427907 3.7464252,2.615862 C 3.0692451,2.9557223 2.5565774,3.6259609 2.4190317,4.3512364 2.3467176,4.7325475 2.3406353,36.669767 2.4128768,36.669767 c 0.027547,0 0.1970823,-0.07265 0.3767442,-0.161442 z"
     style="fill:#ffeeaa;stroke-width:0.055814" />
  <path
     id="path1302"
     d="m 20.099618,28.738824 c -0.175443,-0.01941 -0.401489,-0.06799 -0.502326,-0.10794 -0.100836,-0.03995 -1.641362,-0.945877 -3.42339,-2.013165 C 12.771603,24.580021 12.582893,24.447448 12.302587,23.898002 12.021655,23.347328 12.018605,23.296873 12.018605,19.2 c 0,-4.096873 0.003,-4.147328 0.283982,-4.698002 0.279973,-0.548793 0.470204,-0.682583 3.871315,-2.722707 1.782028,-1.068933 3.365633,-1.985918 3.519121,-2.0377453 0.377879,-0.1275952 1.037279,-0.1234181 1.426141,0.00903 0.303265,0.1032969 6.444603,3.7519273 6.796351,4.0377793 0.306533,0.249108 0.615455,0.710062 0.734779,1.096387 0.108297,0.350624 0.112497,0.511731 0.112497,4.315254 0,3.803523 -0.0042,3.96463 -0.112497,4.315254 -0.119324,0.386325 -0.428246,0.847279 -0.734779,1.096387 -0.230636,0.187429 -6.390307,3.884047 -6.659182,3.99639 -0.27563,0.115166 -0.781271,0.17234 -1.156715,0.130793 z m 3.337887,-4.12784 2.9811,-1.789015 V 19.2 15.578031 l -2.987464,-1.792835 c -1.643105,-0.986059 -3.021016,-1.784837 -3.062025,-1.775062 -0.04101,0.0098 -1.409208,0.818758 -3.040443,1.797739 l -2.965882,1.779966 v 3.61193 3.611931 l 2.972093,1.789403 c 1.634651,0.984172 3.005715,1.791539 3.046808,1.79415 0.04109,0.0026 1.416209,-0.80031 3.055813,-1.784269 z"
     style="fill:#aa8800;stroke-width:0.055814" />
  <path
     id="path1304"
     d="M 19.72093,47.943261 C 2.0238476,47.90937 3.837216,47.963004 2.7813953,47.44224 2.1326246,47.122246 1.633018,46.731453 1.1735524,46.184584 0.82118335,45.765185 0.36116335,44.895436 0.20014437,44.344186 0.10785511,44.028233 0.10151519,42.880202 0.08798945,24.035209 L 0.07365332,4.0611162 0.19134951,3.6631163 C 0.7009126,1.9399839 1.964281,0.6740755 3.6389404,0.20859416 4.0612146,0.09122059 4.1392082,0.08978939 12.15814,0.05226477 16.609302,0.03143554 24.602558,0.01115492 29.92093,0.00719672 L 39.590698,0 V 24 48 L 37.483721,47.98662 C 36.324884,47.97922 28.331628,47.95975 19.72093,47.943261 Z M 37.246512,44.4 v -1.2 h -14.4 H 8.4465116 V 42 40.8 h 14.4000004 14.4 V 39.6 38.4 H 20.663627 4.0807417 l -0.3353448,0.178737 c -0.4408459,0.234968 -0.9667116,0.757387 -1.1371692,1.129716 -0.2223985,0.485782 -0.2543544,0.826128 -0.2353254,2.50633 l 0.017795,1.571264 0.2084538,0.436564 c 0.3490179,0.730947 0.9813173,1.244459 1.6334066,1.326543 0.1534884,0.01932 7.6444193,0.03867 16.6465123,0.04299 L 37.246512,45.6 Z M 3.0883721,36.42566 C 4.0072201,36.043883 2.8243539,36.070457 20.87907,36.025977 l 16.367442,-0.04032 V 19.192827 2.4 H 20.667544 4.0885762 L 3.8535904,2.5186365 C 3.1824597,2.857468 2.6697141,3.4273584 2.4782454,4.0472617 2.3723009,4.3902703 2.369066,4.6356638 2.3626179,12.818676 c -0.00365,4.630194 -0.0051,11.893787 -0.00323,16.141319 l 0.0034,7.722785 0.1255814,-0.03 c 0.06907,-0.0165 0.3390698,-0.118705 0.6,-0.22712 z"
     style="fill:#aa8800;stroke-width:0.055814" />
</svg>
